<mxfile host="65bd71144e">
    <diagram id="zoxZZwhfWDGT5xq_XNLR" name="Page-1">
        <mxGraphModel dx="636" dy="1339" grid="1" gridSize="10" guides="1" tooltips="1" connect="1" arrows="1" fold="1" page="1" pageScale="1" pageWidth="850" pageHeight="1100" math="0" shadow="0">
            <root>
                <mxCell id="0"/>
                <mxCell id="1" parent="0"/>
                <mxCell id="7" style="edgeStyle=none;html=1;entryX=0.5;entryY=0;entryDx=0;entryDy=0;" parent="1" source="18" target="6" edge="1">
                    <mxGeometry relative="1" as="geometry">
                        <mxPoint x="303" y="370" as="sourcePoint"/>
                    </mxGeometry>
                </mxCell>
                <mxCell id="2" value="Начало" style="rounded=1;whiteSpace=wrap;html=1;arcSize=50;" parent="1" vertex="1">
                    <mxGeometry x="242.5" y="120" width="120" height="30" as="geometry"/>
                </mxCell>
                <mxCell id="3" value="Конец" style="rounded=1;whiteSpace=wrap;html=1;arcSize=50;" parent="1" vertex="1">
                    <mxGeometry x="242.5" y="520" width="120" height="30" as="geometry"/>
                </mxCell>
                <mxCell id="4" value="" style="endArrow=none;dashed=1;html=1;strokeWidth=2;exitX=0;exitY=0.5;exitDx=0;exitDy=0;exitPerimeter=0;entryX=0.867;entryY=0.133;entryDx=0;entryDy=0;entryPerimeter=0;" parent="1" source="5" target="2" edge="1">
                    <mxGeometry width="50" height="50" relative="1" as="geometry">
                        <mxPoint x="222" y="130" as="sourcePoint"/>
                        <mxPoint x="405" y="100" as="targetPoint"/>
                    </mxGeometry>
                </mxCell>
                <mxCell id="5" value="&lt;span style=&quot;color: rgb(0, 0, 0); text-align: center; text-wrap-mode: wrap;&quot;&gt;На вход функции поступает id услуги&lt;/span&gt;" style="strokeWidth=2;html=1;shape=mxgraph.flowchart.annotation_1;align=left;pointerEvents=1;" parent="1" vertex="1">
                    <mxGeometry x="462" y="10" width="13" height="60" as="geometry"/>
                </mxCell>
                <mxCell id="29" style="edgeStyle=none;html=1;entryX=0.5;entryY=0;entryDx=0;entryDy=0;" parent="1" source="6" target="28" edge="1">
                    <mxGeometry relative="1" as="geometry"/>
                </mxCell>
                <mxCell id="6" value="Расчитать сумму, потраченную на расходные материалы" style="rounded=0;whiteSpace=wrap;align=left;spacing=8;labelBackgroundColor=none;fontColor=default;" parent="1" vertex="1">
                    <mxGeometry x="203.72" y="260" width="192.56" height="50" as="geometry"/>
                </mxCell>
                <mxCell id="17" value="" style="edgeStyle=none;html=1;entryX=0.5;entryY=0;entryDx=0;entryDy=0;" parent="1" source="2" target="18" edge="1">
                    <mxGeometry relative="1" as="geometry">
                        <mxPoint x="303" y="150" as="sourcePoint"/>
                        <mxPoint x="303" y="240" as="targetPoint"/>
                    </mxGeometry>
                </mxCell>
                <mxCell id="18" value="" style="rhombus;whiteSpace=wrap;html=1;" parent="1" vertex="1">
                    <mxGeometry x="240" y="170" width="122.5" height="50" as="geometry"/>
                </mxCell>
                <mxCell id="19" value="" style="endArrow=none;dashed=1;html=1;strokeWidth=2;exitX=0;exitY=0.5;exitDx=0;exitDy=0;exitPerimeter=0;" parent="1" source="20" target="18" edge="1">
                    <mxGeometry width="50" height="50" relative="1" as="geometry">
                        <mxPoint x="250" y="258" as="sourcePoint"/>
                        <mxPoint x="375" y="252" as="targetPoint"/>
                    </mxGeometry>
                </mxCell>
                <mxCell id="20" value="&lt;span style=&quot;color: rgb(0, 0, 0); text-align: center; text-wrap-mode: wrap;&quot;&gt;Найдена ли услуга с таким id&lt;/span&gt;" style="strokeWidth=2;html=1;shape=mxgraph.flowchart.annotation_1;align=left;pointerEvents=1;" parent="1" vertex="1">
                    <mxGeometry x="425" y="130" width="10" height="60" as="geometry"/>
                </mxCell>
                <mxCell id="23" value="Да" style="text;html=1;align=center;verticalAlign=middle;whiteSpace=wrap;rounded=0;" parent="1" vertex="1">
                    <mxGeometry x="302.5" y="220" width="60" height="30" as="geometry"/>
                </mxCell>
                <mxCell id="24" value="Нет" style="text;html=1;align=center;verticalAlign=middle;whiteSpace=wrap;rounded=0;" parent="1" vertex="1">
                    <mxGeometry x="362.5" y="170" width="60" height="30" as="geometry"/>
                </mxCell>
                <mxCell id="25" style="edgeStyle=orthogonalEdgeStyle;html=1;exitX=0.5;exitY=1;exitDx=0;exitDy=0;" parent="1" source="16" edge="1">
                    <mxGeometry relative="1" as="geometry">
                        <mxPoint x="497" y="265" as="sourcePoint"/>
                        <mxPoint x="300" y="500" as="targetPoint"/>
                        <Array as="points">
                            <mxPoint x="650" y="500"/>
                            <mxPoint x="301" y="500"/>
                        </Array>
                    </mxGeometry>
                </mxCell>
                <mxCell id="37" style="edgeStyle=none;html=1;" parent="1" source="28" target="36" edge="1">
                    <mxGeometry relative="1" as="geometry"/>
                </mxCell>
                <mxCell id="28" value="Расчитать сумму, в соответсвии с затраченными человекочасами и их оплатой" style="rounded=0;whiteSpace=wrap;align=left;spacing=8;labelBackgroundColor=none;fontColor=default;" parent="1" vertex="1">
                    <mxGeometry x="180" y="330" width="242.56" height="50" as="geometry"/>
                </mxCell>
                <mxCell id="30" value="" style="edgeStyle=orthogonalEdgeStyle;html=1;exitX=1;exitY=0.5;exitDx=0;exitDy=0;" parent="1" source="18" target="16" edge="1">
                    <mxGeometry relative="1" as="geometry">
                        <mxPoint x="358" y="195" as="sourcePoint"/>
                        <mxPoint x="650" y="740" as="targetPoint"/>
                    </mxGeometry>
                </mxCell>
                <mxCell id="16" value="возврат -1" style="rounded=0;whiteSpace=wrap;html=1;" parent="1" vertex="1">
                    <mxGeometry x="600" y="250" width="100" height="40" as="geometry"/>
                </mxCell>
                <mxCell id="38" style="edgeStyle=none;html=1;" parent="1" source="36" target="3" edge="1">
                    <mxGeometry relative="1" as="geometry"/>
                </mxCell>
                <mxCell id="36" value="возврат полную стоимость (как сумма оплаты человеческой работы и сумму за расходные материалы)" style="rounded=0;whiteSpace=wrap;html=1;" parent="1" vertex="1">
                    <mxGeometry x="211.9" y="410" width="178.1" height="70" as="geometry"/>
                </mxCell>
            </root>
        </mxGraphModel>
    </diagram>
</mxfile>